<?xml version="1.0" encoding="UTF-8" standalone="no"?>
<!DOCTYPE svg PUBLIC "-//W3C//DTD SVG 1.1//EN" "http://www.w3.org/Graphics/SVG/1.1/DTD/svg11.dtd">
<svg width="100%" height="100%" viewBox="0 0 200 200" version="1.1" xmlns="http://www.w3.org/2000/svg" xmlns:xlink="http://www.w3.org/1999/xlink" xml:space="preserve" xmlns:serif="http://www.serif.com/" style="fill-rule:evenodd;clip-rule:evenodd;stroke-linecap:round;stroke-linejoin:round;">
    <path d="M200,16C200,7.169 192.831,0 184,0L16,0C7.169,0 0,7.169 0,16L0,184C0,192.831 7.169,200 16,200L184,200C192.831,200 200,192.831 200,184L200,16Z" style="fill:rgb(17,24,39);"/>
    <g transform="matrix(1.72539,0,0,1.72539,-72.5389,-76.8524)">
        <path d="M70,60L50,60L50,140L70,140" style="fill:none;fill-rule:nonzero;stroke:rgb(165,180,252);stroke-width:8px;"/>
    </g>
    <g transform="matrix(1.72539,0,0,1.72539,-72.5389,-76.8524)">
        <path d="M130,60L150,60L150,140L130,140" style="fill:none;fill-rule:nonzero;stroke:rgb(165,180,252);stroke-width:8px;"/>
    </g>
    <g transform="matrix(1.72539,0,0,1.72539,-72.5389,-76.8524)">
        <path d="M115,55L85,105L100,105L85,150L115,100L100,100L115,55Z" style="fill:url(#_Linear1);fill-rule:nonzero;"/>
    </g>
    <defs>
        <linearGradient id="_Linear1" x1="0" y1="0" x2="1" y2="0" gradientUnits="userSpaceOnUse" gradientTransform="matrix(30,95,-95,30,85,55)"><stop offset="0" style="stop-color:rgb(129,140,248);stop-opacity:1"/><stop offset="1" style="stop-color:rgb(79,70,229);stop-opacity:1"/></linearGradient>
    </defs>
</svg>
